<mxfile host="app.diagrams.net" modified="2021-05-08T07:28:41.198Z" agent="5.0 (Macintosh; Intel Mac OS X 10_15_5) AppleWebKit/537.36 (KHTML, like Gecko) Chrome/90.0.4430.93 Safari/537.36" etag="u7A-vRkFMhIwzjqyjb1f" version="14.6.10" type="github">
  <diagram id="C5RBs43oDa-KdzZeNtuy" name="Page-1">
    <mxGraphModel dx="1298" dy="731" grid="1" gridSize="10" guides="1" tooltips="1" connect="1" arrows="1" fold="1" page="1" pageScale="1" pageWidth="827" pageHeight="1169" math="0" shadow="0">
      <root>
        <mxCell id="WIyWlLk6GJQsqaUBKTNV-0" />
        <mxCell id="WIyWlLk6GJQsqaUBKTNV-1" parent="WIyWlLk6GJQsqaUBKTNV-0" />
        <mxCell id="7waVQ-skfRHY_aBNTdEB-11" style="edgeStyle=orthogonalEdgeStyle;rounded=0;orthogonalLoop=1;jettySize=auto;html=1;entryX=0.5;entryY=0;entryDx=0;entryDy=0;" edge="1" parent="WIyWlLk6GJQsqaUBKTNV-1" source="7waVQ-skfRHY_aBNTdEB-0" target="7waVQ-skfRHY_aBNTdEB-1">
          <mxGeometry relative="1" as="geometry" />
        </mxCell>
        <mxCell id="7waVQ-skfRHY_aBNTdEB-0" value="发布口碑任务计划" style="rounded=1;whiteSpace=wrap;html=1;" vertex="1" parent="WIyWlLk6GJQsqaUBKTNV-1">
          <mxGeometry x="130" y="190" width="120" height="60" as="geometry" />
        </mxCell>
        <mxCell id="7waVQ-skfRHY_aBNTdEB-18" style="edgeStyle=orthogonalEdgeStyle;rounded=0;orthogonalLoop=1;jettySize=auto;html=1;" edge="1" parent="WIyWlLk6GJQsqaUBKTNV-1" source="7waVQ-skfRHY_aBNTdEB-1">
          <mxGeometry relative="1" as="geometry">
            <mxPoint x="290" y="370" as="targetPoint" />
          </mxGeometry>
        </mxCell>
        <mxCell id="7waVQ-skfRHY_aBNTdEB-1" value="制定口碑任务方案" style="rounded=1;whiteSpace=wrap;html=1;" vertex="1" parent="WIyWlLk6GJQsqaUBKTNV-1">
          <mxGeometry x="130" y="340" width="120" height="60" as="geometry" />
        </mxCell>
        <mxCell id="7waVQ-skfRHY_aBNTdEB-15" style="edgeStyle=orthogonalEdgeStyle;rounded=0;orthogonalLoop=1;jettySize=auto;html=1;" edge="1" parent="WIyWlLk6GJQsqaUBKTNV-1" source="7waVQ-skfRHY_aBNTdEB-2">
          <mxGeometry relative="1" as="geometry">
            <mxPoint x="830" y="590" as="targetPoint" />
          </mxGeometry>
        </mxCell>
        <mxCell id="7waVQ-skfRHY_aBNTdEB-2" value="任务派发给各组组长" style="rounded=1;whiteSpace=wrap;html=1;" vertex="1" parent="WIyWlLk6GJQsqaUBKTNV-1">
          <mxGeometry x="770" y="480" width="120" height="60" as="geometry" />
        </mxCell>
        <mxCell id="7waVQ-skfRHY_aBNTdEB-16" style="edgeStyle=orthogonalEdgeStyle;rounded=0;orthogonalLoop=1;jettySize=auto;html=1;" edge="1" parent="WIyWlLk6GJQsqaUBKTNV-1" source="7waVQ-skfRHY_aBNTdEB-3">
          <mxGeometry relative="1" as="geometry">
            <mxPoint x="930" y="630" as="targetPoint" />
          </mxGeometry>
        </mxCell>
        <mxCell id="7waVQ-skfRHY_aBNTdEB-3" value="组长分发任务给组员" style="rounded=1;whiteSpace=wrap;html=1;" vertex="1" parent="WIyWlLk6GJQsqaUBKTNV-1">
          <mxGeometry x="770" y="600" width="120" height="60" as="geometry" />
        </mxCell>
        <mxCell id="7waVQ-skfRHY_aBNTdEB-19" style="edgeStyle=orthogonalEdgeStyle;rounded=0;orthogonalLoop=1;jettySize=auto;html=1;entryX=0;entryY=0.5;entryDx=0;entryDy=0;" edge="1" parent="WIyWlLk6GJQsqaUBKTNV-1" source="7waVQ-skfRHY_aBNTdEB-4" target="7waVQ-skfRHY_aBNTdEB-5">
          <mxGeometry relative="1" as="geometry" />
        </mxCell>
        <mxCell id="7waVQ-skfRHY_aBNTdEB-4" value="确定口碑任务维护链接" style="rounded=1;whiteSpace=wrap;html=1;" vertex="1" parent="WIyWlLk6GJQsqaUBKTNV-1">
          <mxGeometry x="294" y="340" width="120" height="60" as="geometry" />
        </mxCell>
        <mxCell id="7waVQ-skfRHY_aBNTdEB-20" style="edgeStyle=orthogonalEdgeStyle;rounded=0;orthogonalLoop=1;jettySize=auto;html=1;entryX=0;entryY=0.5;entryDx=0;entryDy=0;" edge="1" parent="WIyWlLk6GJQsqaUBKTNV-1" source="7waVQ-skfRHY_aBNTdEB-5" target="7waVQ-skfRHY_aBNTdEB-6">
          <mxGeometry relative="1" as="geometry" />
        </mxCell>
        <mxCell id="7waVQ-skfRHY_aBNTdEB-5" value="确定口碑任务人员以及子任务" style="rounded=1;whiteSpace=wrap;html=1;" vertex="1" parent="WIyWlLk6GJQsqaUBKTNV-1">
          <mxGeometry x="460" y="340" width="120" height="60" as="geometry" />
        </mxCell>
        <mxCell id="7waVQ-skfRHY_aBNTdEB-21" style="edgeStyle=orthogonalEdgeStyle;rounded=0;orthogonalLoop=1;jettySize=auto;html=1;entryX=0;entryY=0.5;entryDx=0;entryDy=0;" edge="1" parent="WIyWlLk6GJQsqaUBKTNV-1" source="7waVQ-skfRHY_aBNTdEB-6" target="7waVQ-skfRHY_aBNTdEB-7">
          <mxGeometry relative="1" as="geometry" />
        </mxCell>
        <mxCell id="7waVQ-skfRHY_aBNTdEB-6" value="制定口碑任务操作说明书" style="rounded=1;whiteSpace=wrap;html=1;" vertex="1" parent="WIyWlLk6GJQsqaUBKTNV-1">
          <mxGeometry x="610" y="340" width="120" height="60" as="geometry" />
        </mxCell>
        <mxCell id="7waVQ-skfRHY_aBNTdEB-12" style="edgeStyle=orthogonalEdgeStyle;rounded=0;orthogonalLoop=1;jettySize=auto;html=1;entryX=0.5;entryY=0;entryDx=0;entryDy=0;" edge="1" parent="WIyWlLk6GJQsqaUBKTNV-1" source="7waVQ-skfRHY_aBNTdEB-7" target="7waVQ-skfRHY_aBNTdEB-2">
          <mxGeometry relative="1" as="geometry" />
        </mxCell>
        <mxCell id="7waVQ-skfRHY_aBNTdEB-7" value="定期发布口碑链接" style="rounded=1;whiteSpace=wrap;html=1;" vertex="1" parent="WIyWlLk6GJQsqaUBKTNV-1">
          <mxGeometry x="770" y="340" width="120" height="60" as="geometry" />
        </mxCell>
        <mxCell id="7waVQ-skfRHY_aBNTdEB-17" style="edgeStyle=orthogonalEdgeStyle;rounded=0;orthogonalLoop=1;jettySize=auto;html=1;" edge="1" parent="WIyWlLk6GJQsqaUBKTNV-1" source="7waVQ-skfRHY_aBNTdEB-8">
          <mxGeometry relative="1" as="geometry">
            <mxPoint x="994" y="550" as="targetPoint" />
          </mxGeometry>
        </mxCell>
        <mxCell id="7waVQ-skfRHY_aBNTdEB-8" value="组员维护口碑链接" style="rounded=1;whiteSpace=wrap;html=1;" vertex="1" parent="WIyWlLk6GJQsqaUBKTNV-1">
          <mxGeometry x="934" y="600" width="120" height="60" as="geometry" />
        </mxCell>
        <mxCell id="7waVQ-skfRHY_aBNTdEB-13" style="edgeStyle=orthogonalEdgeStyle;rounded=0;orthogonalLoop=1;jettySize=auto;html=1;" edge="1" parent="WIyWlLk6GJQsqaUBKTNV-1" source="7waVQ-skfRHY_aBNTdEB-9">
          <mxGeometry relative="1" as="geometry">
            <mxPoint x="994" y="410" as="targetPoint" />
          </mxGeometry>
        </mxCell>
        <mxCell id="7waVQ-skfRHY_aBNTdEB-9" value="组长整理精选答案" style="rounded=1;whiteSpace=wrap;html=1;" vertex="1" parent="WIyWlLk6GJQsqaUBKTNV-1">
          <mxGeometry x="934" y="480" width="120" height="60" as="geometry" />
        </mxCell>
        <mxCell id="7waVQ-skfRHY_aBNTdEB-10" value="定期统计所有任务完成情况" style="rounded=1;whiteSpace=wrap;html=1;" vertex="1" parent="WIyWlLk6GJQsqaUBKTNV-1">
          <mxGeometry x="930" y="340" width="120" height="60" as="geometry" />
        </mxCell>
        <mxCell id="7waVQ-skfRHY_aBNTdEB-27" style="edgeStyle=orthogonalEdgeStyle;rounded=0;orthogonalLoop=1;jettySize=auto;html=1;entryX=1;entryY=0.5;entryDx=0;entryDy=0;" edge="1" parent="WIyWlLk6GJQsqaUBKTNV-1" source="7waVQ-skfRHY_aBNTdEB-24" target="7waVQ-skfRHY_aBNTdEB-0">
          <mxGeometry relative="1" as="geometry" />
        </mxCell>
        <mxCell id="7waVQ-skfRHY_aBNTdEB-24" value="收到反馈并优化方案" style="rounded=1;whiteSpace=wrap;html=1;" vertex="1" parent="WIyWlLk6GJQsqaUBKTNV-1">
          <mxGeometry x="294" y="190" width="120" height="60" as="geometry" />
        </mxCell>
        <mxCell id="7waVQ-skfRHY_aBNTdEB-26" value="" style="edgeStyle=segmentEdgeStyle;endArrow=classic;html=1;rounded=0;" edge="1" parent="WIyWlLk6GJQsqaUBKTNV-1">
          <mxGeometry width="50" height="50" relative="1" as="geometry">
            <mxPoint x="994" y="340" as="sourcePoint" />
            <mxPoint x="414" y="220" as="targetPoint" />
            <Array as="points">
              <mxPoint x="994" y="220" />
              <mxPoint x="414" y="220" />
            </Array>
          </mxGeometry>
        </mxCell>
        <mxCell id="7waVQ-skfRHY_aBNTdEB-28" value="" style="endArrow=none;dashed=1;html=1;dashPattern=1 3;strokeWidth=2;rounded=0;edgeStyle=orthogonalEdgeStyle;" edge="1" parent="WIyWlLk6GJQsqaUBKTNV-1">
          <mxGeometry width="50" height="50" relative="1" as="geometry">
            <mxPoint x="20" y="280" as="sourcePoint" />
            <mxPoint x="1120" y="280" as="targetPoint" />
          </mxGeometry>
        </mxCell>
        <mxCell id="7waVQ-skfRHY_aBNTdEB-29" value="" style="endArrow=none;dashed=1;html=1;dashPattern=1 3;strokeWidth=2;rounded=0;edgeStyle=orthogonalEdgeStyle;" edge="1" parent="WIyWlLk6GJQsqaUBKTNV-1">
          <mxGeometry width="50" height="50" relative="1" as="geometry">
            <mxPoint x="20" y="440" as="sourcePoint" />
            <mxPoint x="1120" y="440" as="targetPoint" />
          </mxGeometry>
        </mxCell>
        <mxCell id="7waVQ-skfRHY_aBNTdEB-30" value="" style="endArrow=none;dashed=1;html=1;dashPattern=1 3;strokeWidth=2;rounded=0;edgeStyle=orthogonalEdgeStyle;" edge="1" parent="WIyWlLk6GJQsqaUBKTNV-1">
          <mxGeometry width="50" height="50" relative="1" as="geometry">
            <mxPoint x="20" y="570" as="sourcePoint" />
            <mxPoint x="1120" y="570" as="targetPoint" />
          </mxGeometry>
        </mxCell>
        <mxCell id="7waVQ-skfRHY_aBNTdEB-31" value="BOSS" style="text;html=1;align=center;verticalAlign=middle;resizable=0;points=[];autosize=1;strokeColor=none;" vertex="1" parent="WIyWlLk6GJQsqaUBKTNV-1">
          <mxGeometry x="15" y="210" width="50" height="20" as="geometry" />
        </mxCell>
        <mxCell id="7waVQ-skfRHY_aBNTdEB-32" value="HR" style="text;html=1;align=center;verticalAlign=middle;resizable=0;points=[];autosize=1;strokeColor=none;" vertex="1" parent="WIyWlLk6GJQsqaUBKTNV-1">
          <mxGeometry x="25" y="350" width="30" height="20" as="geometry" />
        </mxCell>
        <mxCell id="7waVQ-skfRHY_aBNTdEB-33" value="组长" style="text;html=1;align=center;verticalAlign=middle;resizable=0;points=[];autosize=1;strokeColor=none;" vertex="1" parent="WIyWlLk6GJQsqaUBKTNV-1">
          <mxGeometry x="20" y="500" width="40" height="20" as="geometry" />
        </mxCell>
        <mxCell id="7waVQ-skfRHY_aBNTdEB-34" value="组员" style="text;html=1;align=center;verticalAlign=middle;resizable=0;points=[];autosize=1;strokeColor=none;" vertex="1" parent="WIyWlLk6GJQsqaUBKTNV-1">
          <mxGeometry x="20" y="630" width="40" height="20" as="geometry" />
        </mxCell>
      </root>
    </mxGraphModel>
  </diagram>
</mxfile>
